<svg width="68" height="75" viewBox="0 0 68 75" fill="none" xmlns="http://www.w3.org/2000/svg">
<path d="M55.8648 23.9062L46.9432 31.0227L45.1735 32.4443L33.8276 41.4913L22.3524 32.3878L20.5665 30.9661L11.6691 23.9062H0V73.5515H11.7176V39.0034L18.4896 44.0519L20.6069 45.6271L31.0153 53.3816H36.6479L46.822 45.7967L48.9312 44.2296L55.9456 39.0034V73.5515H67.6552V23.9062H55.8648Z" fill="#212121"/>
<path d="M33.8042 23.9346L33.4384 24.7205L33.0727 23.9346L19.2412 30.4743V74.1288H21.3456V31.8249L33.4384 26.1049L45.5339 31.8249V74.1288H47.6357V30.4743L33.8042 23.9346Z" fill="#EAB431"/>
<path d="M32.3299 25.1214C31.7247 22.3004 28.0878 21.2855 24.881 20.3903C23.7632 20.078 22.7071 19.7813 21.8237 19.4196C18.1971 17.9389 14.0863 16.2604 11.7785 12.2319C10.2743 9.60613 10.2768 6.20226 11.7811 3.56347C13.1384 1.18752 15.4308 -0.137076 18.143 0.0112581C23.1167 0.261084 27.1219 4.5914 30.3827 13.2468C31.2842 15.641 32.1316 18.0794 32.8992 20.4918C33.0331 20.9108 33.2392 21.3714 33.4504 21.8476C33.8831 22.8235 34.3287 23.8358 34.4034 24.8117L32.3274 25.1188L32.3299 25.1214ZM17.7644 2.12697C15.3845 2.12697 14.1378 3.69359 13.6046 4.62783C12.4662 6.61863 12.4636 9.18716 13.5995 11.1675C15.5467 14.5662 19.1398 16.0313 22.6144 17.4522C23.3846 17.7671 24.3839 18.0456 25.4425 18.3422C27.1167 18.8081 28.9815 19.3311 30.5836 20.1639C29.9114 18.108 29.185 16.0418 28.42 14.0041C25.4889 6.22048 22.0941 2.33776 18.04 2.13218L17.767 2.12437L17.7644 2.12697Z" fill="#EAB431"/>
<path d="M34.9444 25.1216L32.8684 24.8145C32.9431 23.8361 33.3913 22.8237 33.824 21.8453C34.0326 21.3716 34.2387 20.9136 34.3726 20.4946C35.1505 18.0588 35.9979 15.6204 36.8891 13.2497C40.1499 4.59426 44.1551 0.26394 49.1288 0.0141138C51.8281 -0.126413 54.1359 1.19038 55.4933 3.57153C56.9975 6.21032 56.9975 9.60899 55.4933 12.2348C53.1803 16.2684 49.0721 17.9443 45.4481 19.4225C44.5646 19.7842 43.5086 20.0783 42.3908 20.3905C39.184 21.2884 35.5471 22.3033 34.9393 25.1242L34.9444 25.1216ZM49.5074 2.12723L49.2344 2.13503C45.1828 2.33802 41.788 6.22333 38.8569 14.007C38.0971 16.0238 37.3707 18.0927 36.6933 20.1641C38.2954 19.3314 40.1602 18.8083 41.8344 18.3425C42.893 18.0458 43.8924 17.7674 44.6625 17.4525C48.1346 16.0342 51.7251 14.5691 53.6749 11.1678C54.8108 9.19001 54.8108 6.62149 53.6723 4.63069C53.1417 3.69384 51.8899 2.12723 49.5074 2.12723Z" fill="#EAB431"/>
</svg>
