<svg width="372" height="93" viewBox="0 0 372 93" fill="none" xmlns="http://www.w3.org/2000/svg">
<path d="M366.152 86.1684C365.224 86.1684 364.392 86.0084 363.656 85.6884C362.92 85.3524 362.312 84.9044 361.832 84.3444C361.352 83.7844 361.024 83.1764 360.848 82.5204L363.464 81.9444C363.624 82.5364 363.944 83.0084 364.424 83.3604C364.92 83.6964 365.48 83.8644 366.104 83.8644C366.904 83.8644 367.504 83.7204 367.904 83.4324C368.32 83.1284 368.528 82.7524 368.528 82.3044C368.528 81.8724 368.344 81.5364 367.976 81.2964C367.608 81.0564 367.128 80.8564 366.536 80.6964C365.96 80.5364 365.344 80.3684 364.688 80.1924C364.032 80.0164 363.408 79.7844 362.816 79.4964C362.24 79.2084 361.768 78.8244 361.4 78.3444C361.032 77.8484 360.848 77.2004 360.848 76.4004C360.848 75.6964 361.056 75.0564 361.472 74.4804C361.888 73.9044 362.472 73.4484 363.224 73.1124C363.992 72.7764 364.896 72.6084 365.936 72.6084C366.832 72.6084 367.624 72.7524 368.312 73.0404C369 73.3284 369.568 73.7364 370.016 74.2644C370.464 74.7764 370.768 75.3924 370.928 76.1124L368.312 76.7844C368.152 76.1764 367.872 75.7124 367.472 75.3924C367.072 75.0724 366.528 74.9124 365.84 74.9124C365.104 74.9124 364.544 75.0484 364.16 75.3204C363.792 75.5764 363.608 75.9284 363.608 76.3764C363.608 76.8084 363.792 77.1524 364.16 77.4084C364.528 77.6484 365 77.8564 365.576 78.0324C366.152 78.1924 366.76 78.3604 367.4 78.5364C368.056 78.7124 368.672 78.9444 369.248 79.2324C369.824 79.5044 370.296 79.8884 370.664 80.3844C371.032 80.8644 371.216 81.4964 371.216 82.2804C371.216 82.9684 371.008 83.6084 370.592 84.2004C370.192 84.7924 369.608 85.2724 368.84 85.6404C368.088 85.9924 367.192 86.1684 366.152 86.1684Z" fill="#212121"/>
<path d="M350.583 86.1684C349.431 86.1684 348.383 85.8884 347.439 85.3284C346.511 84.7524 345.767 83.9604 345.207 82.9524C344.663 81.9284 344.391 80.7364 344.391 79.3764C344.391 78.0164 344.663 76.8324 345.207 75.8244C345.767 74.8004 346.511 74.0084 347.439 73.4484C348.383 72.8884 349.431 72.6084 350.583 72.6084C351.671 72.6084 352.623 72.8804 353.439 73.4244C354.255 73.9524 354.847 74.6884 355.215 75.6324V72.7764H357.975V86.0004H356.751C356.303 86.0004 355.935 85.8564 355.647 85.5684C355.359 85.2804 355.215 84.9124 355.215 84.4644V83.1204C354.847 84.0644 354.255 84.8084 353.439 85.3524C352.623 85.8964 351.671 86.1684 350.583 86.1684ZM351.207 83.7924C351.895 83.7924 352.543 83.6244 353.151 83.2884C353.759 82.9524 354.255 82.4564 354.639 81.8004C355.023 81.1284 355.215 80.3204 355.215 79.3764C355.215 78.4164 355.023 77.6164 354.639 76.9764C354.255 76.3204 353.759 75.8244 353.151 75.4884C352.543 75.1524 351.895 74.9844 351.207 74.9844C350.535 74.9844 349.887 75.1524 349.263 75.4884C348.655 75.8244 348.159 76.3204 347.775 76.9764C347.391 77.6164 347.199 78.4164 347.199 79.3764C347.199 80.3204 347.391 81.1284 347.775 81.8004C348.159 82.4564 348.655 82.9524 349.263 83.2884C349.887 83.6244 350.535 83.7924 351.207 83.7924Z" fill="#212121"/>
<path d="M336.587 86.1684C335.515 86.1684 334.539 86.0004 333.659 85.6644C332.795 85.3284 332.051 84.8564 331.427 84.2484C330.819 83.6404 330.347 82.9364 330.011 82.1364C329.691 81.3204 329.531 80.4324 329.531 79.4724C329.531 78.4324 329.715 77.4964 330.083 76.6644C330.467 75.8164 330.979 75.0884 331.619 74.4804C332.275 73.8724 333.027 73.4084 333.875 73.0884C334.723 72.7684 335.611 72.6084 336.539 72.6084C337.371 72.6084 338.131 72.7204 338.819 72.9444C339.507 73.1684 340.099 73.4804 340.595 73.8804C341.107 74.2804 341.499 74.7444 341.771 75.2724C342.043 75.8004 342.179 76.3684 342.179 76.9764C342.179 77.8244 341.931 78.5284 341.435 79.0884C340.939 79.6484 340.291 80.0884 339.491 80.4084C338.691 80.7284 337.811 80.9444 336.851 81.0564C335.891 81.1684 334.939 81.2004 333.995 81.1524C333.835 81.1364 333.635 81.1284 333.395 81.1284C333.155 81.1124 332.939 81.1044 332.747 81.1044C332.571 81.0884 332.475 81.0804 332.459 81.0804C332.571 81.6084 332.819 82.0884 333.203 82.5204C333.603 82.9364 334.099 83.2644 334.691 83.5044C335.283 83.7444 335.915 83.8644 336.587 83.8644C337.131 83.8644 337.667 83.7684 338.195 83.5764C338.739 83.3844 339.235 83.1204 339.683 82.7844C340.131 82.4484 340.507 82.0644 340.811 81.6324L342.851 83.0964C342.323 83.8004 341.723 84.3844 341.051 84.8484C340.395 85.2964 339.691 85.6324 338.939 85.8564C338.187 86.0644 337.403 86.1684 336.587 86.1684ZM334.235 78.9684C334.827 78.9684 335.427 78.9444 336.035 78.8964C336.643 78.8324 337.203 78.7284 337.715 78.5844C338.243 78.4244 338.667 78.2084 338.987 77.9364C339.307 77.6644 339.467 77.3124 339.467 76.8804C339.467 76.5124 339.347 76.1844 339.107 75.8964C338.883 75.5924 338.563 75.3524 338.147 75.1764C337.731 75.0004 337.243 74.9124 336.683 74.9124C335.851 74.9124 335.107 75.0964 334.451 75.4644C333.795 75.8324 333.275 76.3204 332.891 76.9284C332.523 77.5364 332.323 78.1924 332.291 78.8964C332.515 78.9124 332.795 78.9284 333.131 78.9444C333.467 78.9604 333.835 78.9684 334.235 78.9684Z" fill="#212121"/>
<path d="M319.458 86.1682C318.306 86.1682 317.258 85.8882 316.314 85.3282C315.386 84.7522 314.642 83.9602 314.082 82.9522C313.538 81.9282 313.266 80.7362 313.266 79.3762C313.266 78.0162 313.538 76.8322 314.082 75.8242C314.642 74.8002 315.386 74.0082 316.314 73.4482C317.258 72.8882 318.306 72.6082 319.458 72.6082C320.546 72.6082 321.498 72.8802 322.314 73.4242C323.13 73.9522 323.722 74.6882 324.09 75.6322V68.2402H326.85V86.0002H325.626C325.178 86.0002 324.81 85.8562 324.522 85.5682C324.234 85.2802 324.09 84.9122 324.09 84.4642V83.1202C323.722 84.0642 323.13 84.8082 322.314 85.3522C321.498 85.8962 320.546 86.1682 319.458 86.1682ZM320.082 83.7922C320.77 83.7922 321.418 83.6242 322.026 83.2882C322.634 82.9522 323.13 82.4562 323.514 81.8002C323.898 81.1282 324.09 80.3202 324.09 79.3762C324.09 78.4162 323.898 77.6162 323.514 76.9762C323.13 76.3202 322.634 75.8242 322.026 75.4882C321.418 75.1522 320.77 74.9842 320.082 74.9842C319.41 74.9842 318.762 75.1522 318.138 75.4882C317.53 75.8242 317.034 76.3202 316.65 76.9762C316.266 77.6162 316.074 78.4162 316.074 79.3762C316.074 80.3202 316.266 81.1282 316.65 81.8002C317.034 82.4562 317.53 82.9522 318.138 83.2882C318.762 83.6242 319.41 83.7922 320.082 83.7922Z" fill="#212121"/>
<path d="M307.711 86.0002V72.7762H310.447V86.0002H307.711ZM309.103 71.0242C308.527 71.0242 308.039 70.8402 307.639 70.4722C307.239 70.1042 307.039 69.6482 307.039 69.1042C307.039 68.5602 307.239 68.1042 307.639 67.7362C308.039 67.3522 308.527 67.1602 309.103 67.1602C309.663 67.1602 310.143 67.3522 310.543 67.7362C310.959 68.1042 311.167 68.5602 311.167 69.1042C311.167 69.6482 310.959 70.1042 310.543 70.4722C310.143 70.8402 309.663 71.0242 309.103 71.0242Z" fill="#212121"/>
<path d="M293.378 86.1684C292.45 86.1684 291.618 86.0084 290.882 85.6884C290.146 85.3524 289.538 84.9044 289.058 84.3444C288.578 83.7844 288.25 83.1764 288.074 82.5204L290.69 81.9444C290.85 82.5364 291.17 83.0084 291.65 83.3604C292.146 83.6964 292.706 83.8644 293.33 83.8644C294.13 83.8644 294.73 83.7204 295.13 83.4324C295.546 83.1284 295.754 82.7524 295.754 82.3044C295.754 81.8724 295.57 81.5364 295.202 81.2964C294.834 81.0564 294.354 80.8564 293.762 80.6964C293.186 80.5364 292.57 80.3684 291.914 80.1924C291.258 80.0164 290.634 79.7844 290.042 79.4964C289.466 79.2084 288.994 78.8244 288.626 78.3444C288.258 77.8484 288.074 77.2004 288.074 76.4004C288.074 75.6964 288.282 75.0564 288.698 74.4804C289.114 73.9044 289.698 73.4484 290.45 73.1124C291.218 72.7764 292.122 72.6084 293.162 72.6084C294.058 72.6084 294.85 72.7524 295.538 73.0404C296.226 73.3284 296.794 73.7364 297.242 74.2644C297.69 74.7764 297.994 75.3924 298.154 76.1124L295.538 76.7844C295.378 76.1764 295.098 75.7124 294.698 75.3924C294.298 75.0724 293.754 74.9124 293.066 74.9124C292.33 74.9124 291.77 75.0484 291.386 75.3204C291.018 75.5764 290.834 75.9284 290.834 76.3764C290.834 76.8084 291.018 77.1524 291.386 77.4084C291.754 77.6484 292.226 77.8564 292.802 78.0324C293.378 78.1924 293.986 78.3604 294.626 78.5364C295.282 78.7124 295.898 78.9444 296.474 79.2324C297.05 79.5044 297.522 79.8884 297.89 80.3844C298.258 80.8644 298.442 81.4964 298.442 82.2804C298.442 82.9684 298.234 83.6084 297.818 84.2004C297.418 84.7924 296.834 85.2724 296.066 85.6404C295.314 85.9924 294.418 86.1684 293.378 86.1684Z" fill="#212121"/>
<path d="M283.322 86.1683C282.314 86.1683 281.474 85.8243 280.802 85.1363C280.13 84.4483 279.794 83.5123 279.794 82.3283V75.0083H277.754V72.7763H285.77V75.0083H282.554V82.4963C282.554 82.9443 282.666 83.2643 282.89 83.4563C283.13 83.6483 283.386 83.7443 283.658 83.7443C283.898 83.7443 284.114 83.7043 284.306 83.6243C284.498 83.5443 284.682 83.4163 284.858 83.2403L286.274 84.9443C285.826 85.3763 285.37 85.6883 284.906 85.8803C284.442 86.0723 283.914 86.1683 283.322 86.1683ZM278.738 73.8083V72.7763C279.074 72.7763 279.33 72.6803 279.506 72.4883C279.698 72.2963 279.794 72.0323 279.794 71.6963V69.4883H282.554V71.2403C282.554 71.4643 282.498 71.6883 282.386 71.9123C282.274 72.1203 282.114 72.3043 281.906 72.4643C281.714 72.6083 281.498 72.7123 281.258 72.7763L278.738 73.8083Z" fill="#212121"/>
<path d="M271.247 85.9997V75.0077H269.688V72.7757H271.247V71.8397C271.247 71.0717 271.344 70.4157 271.536 69.8717C271.744 69.3277 272.048 68.8797 272.448 68.5277C272.864 68.1597 273.384 67.8957 274.008 67.7357C274.648 67.5597 275.4 67.4717 276.264 67.4717V69.7517C275.72 69.7517 275.28 69.8237 274.944 69.9677C274.608 70.0957 274.368 70.3117 274.224 70.6157C274.08 70.9197 274.008 71.3277 274.008 71.8397V72.7757H276.456V75.0077H274.008V85.9997H271.247Z" fill="#212121"/>
<path d="M264.445 86.0002V72.7762H267.181V86.0002H264.445ZM265.837 71.0242C265.261 71.0242 264.773 70.8402 264.373 70.4722C263.973 70.1042 263.773 69.6482 263.773 69.1042C263.773 68.5602 263.973 68.1042 264.373 67.7362C264.773 67.3522 265.261 67.1602 265.837 67.1602C266.397 67.1602 266.877 67.3522 267.277 67.7362C267.693 68.1042 267.901 68.5602 267.901 69.1042C267.901 69.6482 267.693 70.1042 267.277 70.4722C266.877 70.8402 266.397 71.0242 265.837 71.0242Z" fill="#212121"/>
<path d="M254.227 92.4564C253.155 92.4564 252.163 92.2884 251.251 91.9524C250.355 91.6164 249.579 91.1204 248.923 90.4644C248.267 89.8084 247.771 89.0084 247.435 88.0644L249.931 87.0564C250.299 87.9844 250.875 88.7124 251.659 89.2404C252.443 89.7844 253.299 90.0564 254.227 90.0564C254.979 90.0564 255.635 89.9124 256.195 89.6244C256.771 89.3364 257.219 88.9044 257.539 88.3284C257.859 87.7524 258.019 87.0404 258.019 86.1924V83.1204C257.651 84.0644 257.059 84.8084 256.243 85.3524C255.427 85.8964 254.475 86.1684 253.387 86.1684C252.235 86.1684 251.187 85.8884 250.243 85.3284C249.315 84.7524 248.571 83.9604 248.011 82.9524C247.467 81.9284 247.195 80.7364 247.195 79.3764C247.195 78.0164 247.467 76.8324 248.011 75.8244C248.571 74.8004 249.315 74.0084 250.243 73.4484C251.187 72.8884 252.235 72.6084 253.387 72.6084C254.475 72.6084 255.427 72.8804 256.243 73.4244C257.059 73.9524 257.651 74.6884 258.019 75.6324V72.7764H260.779V86.1444C260.779 87.0724 260.627 87.9204 260.323 88.6884C260.035 89.4564 259.611 90.1204 259.051 90.6804C258.491 91.2404 257.803 91.6724 256.987 91.9764C256.187 92.2964 255.267 92.4564 254.227 92.4564ZM254.011 83.7924C254.699 83.7924 255.347 83.6244 255.955 83.2884C256.563 82.9524 257.059 82.4564 257.443 81.8004C257.827 81.1284 258.019 80.3204 258.019 79.3764C258.019 78.4164 257.827 77.6164 257.443 76.9764C257.059 76.3204 256.563 75.8244 255.955 75.4884C255.347 75.1524 254.699 74.9844 254.011 74.9844C253.339 74.9844 252.691 75.1524 252.067 75.4884C251.459 75.8244 250.963 76.3204 250.579 76.9764C250.195 77.6164 250.003 78.4164 250.003 79.3764C250.003 80.3204 250.195 81.1284 250.579 81.8004C250.963 82.4564 251.459 82.9524 252.067 83.2884C252.691 83.6244 253.339 83.7924 254.011 83.7924Z" fill="#212121"/>
<path d="M231.727 92.4564C230.655 92.4564 229.663 92.2884 228.751 91.9524C227.855 91.6164 227.079 91.1204 226.423 90.4644C225.767 89.8084 225.271 89.0084 224.935 88.0644L227.431 87.0564C227.799 87.9844 228.375 88.7124 229.159 89.2404C229.943 89.7844 230.799 90.0564 231.727 90.0564C232.479 90.0564 233.135 89.9124 233.695 89.6244C234.271 89.3364 234.719 88.9044 235.039 88.3284C235.359 87.7524 235.519 87.0404 235.519 86.1924V83.1204C235.151 84.0644 234.559 84.8084 233.743 85.3524C232.927 85.8964 231.975 86.1684 230.887 86.1684C229.735 86.1684 228.687 85.8884 227.743 85.3284C226.815 84.7524 226.071 83.9604 225.511 82.9524C224.967 81.9284 224.695 80.7364 224.695 79.3764C224.695 78.0164 224.967 76.8324 225.511 75.8244C226.071 74.8004 226.815 74.0084 227.743 73.4484C228.687 72.8884 229.735 72.6084 230.887 72.6084C231.975 72.6084 232.927 72.8804 233.743 73.4244C234.559 73.9524 235.151 74.6884 235.519 75.6324V72.7764H238.279V86.1444C238.279 87.0724 238.127 87.9204 237.823 88.6884C237.535 89.4564 237.111 90.1204 236.551 90.6804C235.991 91.2404 235.303 91.6724 234.487 91.9764C233.687 92.2964 232.767 92.4564 231.727 92.4564ZM231.511 83.7924C232.199 83.7924 232.847 83.6244 233.455 83.2884C234.063 82.9524 234.559 82.4564 234.943 81.8004C235.327 81.1284 235.519 80.3204 235.519 79.3764C235.519 78.4164 235.327 77.6164 234.943 76.9764C234.559 76.3204 234.063 75.8244 233.455 75.4884C232.847 75.1524 232.199 74.9844 231.511 74.9844C230.839 74.9844 230.191 75.1524 229.567 75.4884C228.959 75.8244 228.463 76.3204 228.079 76.9764C227.695 77.6164 227.503 78.4164 227.503 79.3764C227.503 80.3204 227.695 81.1284 228.079 81.8004C228.463 82.4564 228.959 82.9524 229.567 83.2884C230.191 83.6244 230.839 83.7924 231.511 83.7924Z" fill="#212121"/>
<path d="M210.023 86.0004V72.7764H212.759V75.5364C212.967 74.9764 213.295 74.4804 213.743 74.0484C214.191 73.6004 214.703 73.2484 215.279 72.9924C215.871 72.7364 216.463 72.6084 217.055 72.6084C218.063 72.6084 218.943 72.8324 219.695 73.2804C220.463 73.7124 221.055 74.3444 221.471 75.1764C221.903 76.0084 222.119 77.0164 222.119 78.2004V86.0004H219.407V78.8484C219.407 77.6484 219.103 76.7044 218.495 76.0164C217.887 75.3284 217.087 74.9844 216.095 74.9844C215.455 74.9844 214.879 75.1604 214.367 75.5124C213.871 75.8644 213.479 76.3524 213.191 76.9764C212.903 77.5844 212.759 78.2884 212.759 79.0884V86.0004H210.023Z" fill="#212121"/>
<path d="M203.555 86.0002V72.7762H206.291V86.0002H203.555ZM204.947 71.0242C204.371 71.0242 203.883 70.8402 203.483 70.4722C203.083 70.1042 202.883 69.6482 202.883 69.1042C202.883 68.5602 203.083 68.1042 203.483 67.7362C203.883 67.3522 204.371 67.1602 204.947 67.1602C205.507 67.1602 205.987 67.3522 206.387 67.7362C206.803 68.1042 207.011 68.5602 207.011 69.1042C207.011 69.6482 206.803 70.1042 206.387 70.4722C205.987 70.8402 205.507 71.0242 204.947 71.0242Z" fill="#212121"/>
<path d="M194.18 86.0004V72.7764H196.916V86.0004H194.18ZM196.124 79.3284L196.916 75.6804C197.236 74.7364 197.756 73.9924 198.476 73.4484C199.212 72.8884 200.044 72.6084 200.972 72.6084V75.4404C200.844 75.4084 200.716 75.3924 200.588 75.3924C200.476 75.3764 200.356 75.3684 200.228 75.3684C199.572 75.3684 198.996 75.5204 198.5 75.8244C198.004 76.1124 197.612 76.5524 197.324 77.1444C197.052 77.7204 196.916 78.4484 196.916 79.3284H196.124Z" fill="#212121"/>
<path d="M183.192 86.1684C182.04 86.1684 180.992 85.8884 180.048 85.3284C179.12 84.7524 178.376 83.9604 177.816 82.9524C177.272 81.9284 177 80.7364 177 79.3764C177 78.0164 177.272 76.8324 177.816 75.8244C178.376 74.8004 179.12 74.0084 180.048 73.4484C180.992 72.8884 182.04 72.6084 183.192 72.6084C184.28 72.6084 185.232 72.8804 186.048 73.4244C186.864 73.9524 187.456 74.6884 187.824 75.6324V72.7764H190.584V86.0004H189.36C188.912 86.0004 188.544 85.8564 188.256 85.5684C187.968 85.2804 187.824 84.9124 187.824 84.4644V83.1204C187.456 84.0644 186.864 84.8084 186.048 85.3524C185.232 85.8964 184.28 86.1684 183.192 86.1684ZM183.816 83.7924C184.504 83.7924 185.152 83.6244 185.76 83.2884C186.368 82.9524 186.864 82.4564 187.248 81.8004C187.632 81.1284 187.824 80.3204 187.824 79.3764C187.824 78.4164 187.632 77.6164 187.248 76.9764C186.864 76.3204 186.368 75.8244 185.76 75.4884C185.152 75.1524 184.504 74.9844 183.816 74.9844C183.144 74.9844 182.496 75.1524 181.872 75.4884C181.264 75.8244 180.768 76.3204 180.384 76.9764C180 77.6164 179.808 78.4164 179.808 79.3764C179.808 80.3204 180 81.1284 180.384 81.8004C180.768 82.4564 181.264 82.9524 181.872 83.2884C182.496 83.6244 183.144 83.7924 183.816 83.7924Z" fill="#212121"/>
<path d="M162.328 86.0002V68.2402H165.064V75.5362C165.272 74.9762 165.6 74.4802 166.048 74.0482C166.496 73.6002 167.008 73.2482 167.584 72.9922C168.176 72.7362 168.768 72.6082 169.36 72.6082C170.368 72.6082 171.248 72.8322 172 73.2802C172.768 73.7122 173.36 74.3442 173.776 75.1762C174.208 76.0082 174.424 77.0162 174.424 78.2002V86.0002H171.712V78.8482C171.712 77.6482 171.408 76.7042 170.8 76.0162C170.192 75.3282 169.392 74.9842 168.4 74.9842C167.76 74.9842 167.184 75.1602 166.672 75.5122C166.176 75.8642 165.784 76.3522 165.496 76.9762C165.208 77.5842 165.064 78.2882 165.064 79.0882V86.0002H162.328Z" fill="#212121"/>
<path d="M154.3 86.1684C153.372 86.1684 152.54 86.0084 151.804 85.6884C151.068 85.3524 150.46 84.9044 149.98 84.3444C149.5 83.7844 149.172 83.1764 148.996 82.5204L151.612 81.9444C151.772 82.5364 152.092 83.0084 152.572 83.3604C153.068 83.6964 153.628 83.8644 154.252 83.8644C155.052 83.8644 155.652 83.7204 156.052 83.4324C156.468 83.1284 156.676 82.7524 156.676 82.3044C156.676 81.8724 156.492 81.5364 156.124 81.2964C155.756 81.0564 155.276 80.8564 154.684 80.6964C154.108 80.5364 153.492 80.3684 152.836 80.1924C152.18 80.0164 151.556 79.7844 150.964 79.4964C150.388 79.2084 149.916 78.8244 149.548 78.3444C149.18 77.8484 148.996 77.2004 148.996 76.4004C148.996 75.6964 149.204 75.0564 149.62 74.4804C150.036 73.9044 150.62 73.4484 151.372 73.1124C152.14 72.7764 153.044 72.6084 154.084 72.6084C154.98 72.6084 155.772 72.7524 156.46 73.0404C157.148 73.3284 157.716 73.7364 158.164 74.2644C158.612 74.7764 158.916 75.3924 159.076 76.1124L156.46 76.7844C156.3 76.1764 156.02 75.7124 155.62 75.3924C155.22 75.0724 154.676 74.9124 153.988 74.9124C153.252 74.9124 152.692 75.0484 152.308 75.3204C151.94 75.5764 151.756 75.9284 151.756 76.3764C151.756 76.8084 151.94 77.1524 152.308 77.4084C152.676 77.6484 153.148 77.8564 153.724 78.0324C154.3 78.1924 154.908 78.3604 155.548 78.5364C156.204 78.7124 156.82 78.9444 157.396 79.2324C157.972 79.5044 158.444 79.8884 158.812 80.3844C159.18 80.8644 159.364 81.4964 159.364 82.2804C159.364 82.9684 159.156 83.6084 158.74 84.2004C158.34 84.7924 157.756 85.2724 156.988 85.6404C156.236 85.9924 155.34 86.1684 154.3 86.1684Z" fill="#212121"/>
<path d="M132.497 86.1682C131.345 86.1682 130.297 85.8882 129.353 85.3282C128.425 84.7522 127.681 83.9602 127.121 82.9522C126.577 81.9282 126.305 80.7362 126.305 79.3762C126.305 78.0162 126.577 76.8322 127.121 75.8242C127.681 74.8002 128.425 74.0082 129.353 73.4482C130.297 72.8882 131.345 72.6082 132.497 72.6082C133.585 72.6082 134.537 72.8802 135.353 73.4242C136.169 73.9522 136.761 74.6882 137.129 75.6322V68.2402H139.889V86.0002H138.665C138.217 86.0002 137.849 85.8562 137.561 85.5682C137.273 85.2802 137.129 84.9122 137.129 84.4642V83.1202C136.761 84.0642 136.169 84.8082 135.353 85.3522C134.537 85.8962 133.585 86.1682 132.497 86.1682ZM133.121 83.7922C133.809 83.7922 134.457 83.6242 135.065 83.2882C135.673 82.9522 136.169 82.4562 136.553 81.8002C136.937 81.1282 137.129 80.3202 137.129 79.3762C137.129 78.4162 136.937 77.6162 136.553 76.9762C136.169 76.3202 135.673 75.8242 135.065 75.4882C134.457 75.1522 133.809 74.9842 133.121 74.9842C132.449 74.9842 131.801 75.1522 131.177 75.4882C130.569 75.8242 130.073 76.3202 129.689 76.9762C129.305 77.6162 129.113 78.4162 129.113 79.3762C129.113 80.3202 129.305 81.1282 129.689 81.8002C130.073 82.4562 130.569 82.9522 131.177 83.2882C131.801 83.6242 132.449 83.7922 133.121 83.7922Z" fill="#212121"/>
<path d="M111.633 86.0004V72.7764H114.369V75.5364C114.577 74.9764 114.905 74.4804 115.353 74.0484C115.801 73.6004 116.313 73.2484 116.889 72.9924C117.481 72.7364 118.073 72.6084 118.665 72.6084C119.673 72.6084 120.553 72.8324 121.305 73.2804C122.073 73.7124 122.665 74.3444 123.081 75.1764C123.513 76.0084 123.729 77.0164 123.729 78.2004V86.0004H121.017V78.8484C121.017 77.6484 120.713 76.7044 120.105 76.0164C119.497 75.3284 118.697 74.9844 117.705 74.9844C117.065 74.9844 116.489 75.1604 115.977 75.5124C115.481 75.8644 115.089 76.3524 114.801 76.9764C114.513 77.5844 114.369 78.2884 114.369 79.0884V86.0004H111.633Z" fill="#212121"/>
<path d="M100.645 86.1684C99.4931 86.1684 98.4451 85.8884 97.5011 85.3284C96.5731 84.7524 95.8291 83.9604 95.2691 82.9524C94.7251 81.9284 94.4531 80.7364 94.4531 79.3764C94.4531 78.0164 94.7251 76.8324 95.2691 75.8244C95.8291 74.8004 96.5731 74.0084 97.5011 73.4484C98.4451 72.8884 99.4931 72.6084 100.645 72.6084C101.733 72.6084 102.685 72.8804 103.501 73.4244C104.317 73.9524 104.909 74.6884 105.277 75.6324V72.7764H108.037V86.0004H106.813C106.365 86.0004 105.997 85.8564 105.709 85.5684C105.421 85.2804 105.277 84.9124 105.277 84.4644V83.1204C104.909 84.0644 104.317 84.8084 103.501 85.3524C102.685 85.8964 101.733 86.1684 100.645 86.1684ZM101.269 83.7924C101.957 83.7924 102.605 83.6244 103.213 83.2884C103.821 82.9524 104.317 82.4564 104.701 81.8004C105.085 81.1284 105.277 80.3204 105.277 79.3764C105.277 78.4164 105.085 77.6164 104.701 76.9764C104.317 76.3204 103.821 75.8244 103.213 75.4884C102.605 75.1524 101.957 74.9844 101.269 74.9844C100.597 74.9844 99.9491 75.1524 99.3251 75.4884C98.7171 75.8244 98.2211 76.3204 97.8371 76.9764C97.4531 77.6164 97.2611 78.4164 97.2611 79.3764C97.2611 80.3204 97.4531 81.1284 97.8371 81.8004C98.2211 82.4564 98.7171 82.9524 99.3251 83.2884C99.9491 83.6244 100.597 83.7924 101.269 83.7924Z" fill="#212121"/>
<path d="M78.9851 92.4564C77.9131 92.4564 76.9211 92.2884 76.0091 91.9524C75.1131 91.6164 74.3371 91.1204 73.6811 90.4644C73.0251 89.8084 72.5291 89.0084 72.1931 88.0644L74.6891 87.0564C75.0571 87.9844 75.6331 88.7124 76.4171 89.2404C77.2011 89.7844 78.0571 90.0564 78.9851 90.0564C79.7371 90.0564 80.3931 89.9124 80.9531 89.6244C81.5291 89.3364 81.9771 88.9044 82.2971 88.3284C82.6171 87.7524 82.7771 87.0404 82.7771 86.1924V83.1204C82.4091 84.0644 81.8171 84.8084 81.0011 85.3524C80.1851 85.8964 79.2331 86.1684 78.1451 86.1684C76.9931 86.1684 75.9451 85.8884 75.0011 85.3284C74.0731 84.7524 73.3291 83.9604 72.7691 82.9524C72.2251 81.9284 71.9531 80.7364 71.9531 79.3764C71.9531 78.0164 72.2251 76.8324 72.7691 75.8244C73.3291 74.8004 74.0731 74.0084 75.0011 73.4484C75.9451 72.8884 76.9931 72.6084 78.1451 72.6084C79.2331 72.6084 80.1851 72.8804 81.0011 73.4244C81.8171 73.9524 82.4091 74.6884 82.7771 75.6324V72.7764H85.5371V86.1444C85.5371 87.0724 85.3851 87.9204 85.0811 88.6884C84.7931 89.4564 84.3691 90.1204 83.8091 90.6804C83.2491 91.2404 82.5611 91.6724 81.7451 91.9764C80.9451 92.2964 80.0251 92.4564 78.9851 92.4564ZM78.7691 83.7924C79.4571 83.7924 80.1051 83.6244 80.7131 83.2884C81.3211 82.9524 81.8171 82.4564 82.2011 81.8004C82.5851 81.1284 82.7771 80.3204 82.7771 79.3764C82.7771 78.4164 82.5851 77.6164 82.2011 76.9764C81.8171 76.3204 81.3211 75.8244 80.7131 75.4884C80.1051 75.1524 79.4571 74.9844 78.7691 74.9844C78.0971 74.9844 77.4491 75.1524 76.8251 75.4884C76.2171 75.8244 75.7211 76.3204 75.3371 76.9764C74.9531 77.6164 74.7611 78.4164 74.7611 79.3764C74.7611 80.3204 74.9531 81.1284 75.3371 81.8004C75.7211 82.4564 76.2171 82.9524 76.8251 83.2884C77.4491 83.6244 78.0971 83.7924 78.7691 83.7924Z" fill="#212121"/>
<path d="M57.2812 86.0004V72.7764H60.0173V75.5364C60.2253 74.9764 60.5533 74.4804 61.0013 74.0484C61.4493 73.6004 61.9613 73.2484 62.5373 72.9924C63.1293 72.7364 63.7213 72.6084 64.3133 72.6084C65.3213 72.6084 66.2013 72.8324 66.9533 73.2804C67.7213 73.7124 68.3133 74.3444 68.7293 75.1764C69.1613 76.0084 69.3773 77.0164 69.3773 78.2004V86.0004H66.6652V78.8484C66.6652 77.6484 66.3613 76.7044 65.7533 76.0164C65.1453 75.3284 64.3453 74.9844 63.3533 74.9844C62.7133 74.9844 62.1373 75.1604 61.6253 75.5124C61.1293 75.8644 60.7373 76.3524 60.4493 76.9764C60.1613 77.5844 60.0173 78.2884 60.0173 79.0884V86.0004H57.2812Z" fill="#212121"/>
<path d="M50.8126 86.0002V72.7762H53.5486V86.0002H50.8126ZM52.2046 71.0242C51.6286 71.0242 51.1406 70.8402 50.7406 70.4722C50.3406 70.1042 50.1406 69.6482 50.1406 69.1042C50.1406 68.5602 50.3406 68.1042 50.7406 67.7362C51.1406 67.3522 51.6286 67.1602 52.2046 67.1602C52.7646 67.1602 53.2446 67.3522 53.6446 67.7362C54.0606 68.1042 54.2686 68.5602 54.2686 69.1042C54.2686 69.6482 54.0606 70.1042 53.6446 70.4722C53.2446 70.8402 52.7646 71.0242 52.2046 71.0242Z" fill="#212121"/>
<path d="M39.7545 86.1682C38.6025 86.1682 37.5545 85.8882 36.6105 85.3282C35.6825 84.7522 34.9385 83.9602 34.3785 82.9522C33.8345 81.9282 33.5625 80.7362 33.5625 79.3762C33.5625 78.0162 33.8345 76.8322 34.3785 75.8242C34.9385 74.8002 35.6825 74.0082 36.6105 73.4482C37.5545 72.8882 38.6025 72.6082 39.7545 72.6082C40.8425 72.6082 41.7945 72.8802 42.6105 73.4242C43.4265 73.9522 44.0185 74.6882 44.3865 75.6322V68.2402H47.1465V86.0002H45.9225C45.4745 86.0002 45.1065 85.8562 44.8185 85.5682C44.5305 85.2802 44.3865 84.9122 44.3865 84.4642V83.1202C44.0185 84.0642 43.4265 84.8082 42.6105 85.3522C41.7945 85.8962 40.8425 86.1682 39.7545 86.1682ZM40.3785 83.7922C41.0665 83.7922 41.7145 83.6242 42.3225 83.2882C42.9305 82.9522 43.4265 82.4562 43.8105 81.8002C44.1945 81.1282 44.3865 80.3202 44.3865 79.3762C44.3865 78.4162 44.1945 77.6162 43.8105 76.9762C43.4265 76.3202 42.9305 75.8242 42.3225 75.4882C41.7145 75.1522 41.0665 74.9842 40.3785 74.9842C39.7065 74.9842 39.0585 75.1522 38.4345 75.4882C37.8265 75.8242 37.3305 76.3202 36.9465 76.9762C36.5625 77.6162 36.3705 78.4162 36.3705 79.3762C36.3705 80.3202 36.5625 81.1282 36.9465 81.8002C37.3305 82.4562 37.8265 82.9522 38.4345 83.2882C39.0585 83.6242 39.7065 83.7922 40.3785 83.7922Z" fill="#212121"/>
<path d="M18.8906 86.0004V72.7764H21.6266V75.5364C21.8346 74.9764 22.1626 74.4804 22.6106 74.0484C23.0586 73.6004 23.5706 73.2484 24.1466 72.9924C24.7386 72.7364 25.3306 72.6084 25.9226 72.6084C26.9306 72.6084 27.8106 72.8324 28.5626 73.2804C29.3306 73.7124 29.9226 74.3444 30.3386 75.1764C30.7706 76.0084 30.9866 77.0164 30.9866 78.2004V86.0004H28.2746V78.8484C28.2746 77.6484 27.9706 76.7044 27.3626 76.0164C26.7546 75.3284 25.9546 74.9844 24.9626 74.9844C24.3226 74.9844 23.7466 75.1604 23.2346 75.5124C22.7386 75.8644 22.3466 76.3524 22.0586 76.9764C21.7706 77.5844 21.6266 78.2884 21.6266 79.0884V86.0004H18.8906Z" fill="#212121"/>
<path d="M12.422 86.0002V72.7762H15.158V86.0002H12.422ZM13.814 71.0242C13.238 71.0242 12.75 70.8402 12.35 70.4722C11.95 70.1042 11.75 69.6482 11.75 69.1042C11.75 68.5602 11.95 68.1042 12.35 67.7362C12.75 67.3522 13.238 67.1602 13.814 67.1602C14.374 67.1602 14.854 67.3522 15.254 67.7362C15.67 68.1042 15.878 68.5602 15.878 69.1042C15.878 69.6482 15.67 70.1042 15.254 70.4722C14.854 70.8402 14.374 71.0242 13.814 71.0242Z" fill="#212121"/>
<path d="M0 69.3203H9.816V71.5523H2.736V76.4723H8.256V78.7043H2.736V86.0003H0V69.3203Z" fill="#212121"/>
<path d="M24.1027 16.2119L23.8549 16.7443L23.607 16.2119L14.2344 20.6421V50.2148H15.6603V21.557L23.8549 17.6822L32.0512 21.557V50.2148H33.4754V20.6421L24.1027 16.2119Z" fill="#EAB431"/>
<path d="M23.1001 17.0179C22.6899 15.1069 20.2255 14.4193 18.0525 13.8129C17.295 13.6014 16.5794 13.4004 15.9807 13.1553C13.5232 12.1523 10.7376 11.0152 9.17376 8.28621C8.15446 6.50744 8.15621 4.20157 9.1755 2.41399C10.0953 0.804458 11.6487 -0.0928589 13.4866 0.00762652C16.8569 0.176865 19.571 3.11033 21.7806 8.97374C22.3915 10.5956 22.9657 12.2475 23.4858 13.8817C23.5766 14.1655 23.7162 14.4775 23.8593 14.8001C24.1526 15.4612 24.4545 16.147 24.5051 16.8081L23.0984 17.0161L23.1001 17.0179ZM13.23 1.44087C11.6173 1.44087 10.7725 2.50213 10.4112 3.13501C9.63977 4.48363 9.63803 6.22362 10.4077 7.56518C11.7272 9.86753 14.162 10.86 16.5166 11.8226C17.0384 12.0359 17.7156 12.2245 18.433 12.4255C19.5675 12.7411 20.8311 13.0954 21.9167 13.6595C21.4612 12.2668 20.969 10.8671 20.4506 9.48675C18.4644 4.21391 16.164 1.58366 13.4168 1.44439L13.2318 1.4391L13.23 1.44087Z" fill="#EAB431"/>
<path d="M24.8716 17.0183L23.4648 16.8103C23.5155 16.1474 23.8192 15.4617 24.1124 14.7988C24.2538 14.478 24.3934 14.1677 24.4841 13.8839C25.0112 12.2338 25.5855 10.582 26.1894 8.97596C28.399 3.11255 31.1131 0.179083 34.4834 0.00984457C36.3126 -0.0853521 37.8764 0.806677 38.7962 2.41973C39.8155 4.20731 39.8155 6.50966 38.7962 8.28843C37.2289 11.0209 34.445 12.1562 31.9893 13.1576C31.3906 13.4026 30.675 13.6018 29.9175 13.8134C27.7445 14.4216 25.28 15.1091 24.8681 17.0201L24.8716 17.0183ZM34.74 1.44132L34.555 1.44661C31.8095 1.58412 29.5091 4.21613 27.5228 9.48897C27.008 10.8552 26.5158 12.2567 26.0567 13.66C27.1424 13.0959 28.406 12.7415 29.5405 12.426C30.2578 12.225 30.9351 12.0364 31.4569 11.823C33.8097 10.8623 36.2427 9.86975 37.564 7.56564C38.3337 6.22583 38.3337 4.48585 37.5622 3.13723C37.2027 2.50259 36.3544 1.44132 34.74 1.44132Z" fill="#EAB431"/>
<path d="M57.2266 16.3545H65.1648V50.2323H57.2266V16.3545Z" fill="#212121"/>
<path d="M93.7251 43.4596V50.2323H76.25V16.3545H84.0904V43.4596H93.7251Z" fill="#212121"/>
<path d="M120.268 43.4596V50.2323H102.793V16.3545H110.633V43.4596H120.268Z" fill="#212121"/>
<path d="M137.172 22.6452V30.3383H150V36.484H137.172V43.9379H150V50.2286H129.328V16.3545H150V22.6452H137.172Z" fill="#212121"/>
<path d="M173.233 16.3545C184.463 16.3545 190.853 24.631 190.853 33.2952C190.853 41.9594 184.514 50.2323 173.233 50.2323H160.793V16.3545H173.233ZM168.633 23.1308V43.456H172.845C179.189 43.456 182.868 38.5205 182.868 33.2916C182.868 28.0626 179.189 23.1308 172.845 23.1308H168.633Z" fill="#212121"/>
<path d="M198.562 33.2977C198.562 24.0066 205.243 15.4873 216.523 15.4873C227.804 15.4873 234.433 24.0066 234.433 33.2977C234.433 42.5888 227.753 51.1081 216.523 51.1081C205.294 51.1081 198.562 42.5888 198.562 33.2977ZM226.448 33.2977C226.448 27.7317 222.671 22.5571 216.523 22.5571C210.376 22.5571 206.599 27.7353 206.599 33.2977C206.599 38.86 210.325 44.0419 216.523 44.0419C222.722 44.0419 226.448 38.8637 226.448 33.2977Z" fill="#212121"/>
<path d="M264.269 38.4227V16.3545H272.066V50.2323H263.881L251.68 28.4576V50.2323H243.84V16.3545H252.021L264.269 38.4227Z" fill="#212121"/>
<path d="M283.156 16.3545H291.095V50.2323H283.156V16.3545Z" fill="#212121"/>
<path d="M38.9378 15.7627L32.8337 20.6303L31.6228 21.6027L23.8598 27.7908L16.0085 21.564L14.7865 20.5916L8.69893 15.7627H0.714844V49.7199H8.7321V26.0891L13.3655 29.5423L14.8142 30.6196L21.9357 35.9237H25.7895L32.7507 30.7357L34.1938 29.6638L38.9931 26.0891V49.7199H47.0049V15.7627H38.9378Z" fill="#212121"/>
</svg>
